<?xml version="1.0" encoding="UTF-8"?>
<svg xmlns="http://www.w3.org/2000/svg" xmlns:xlink="http://www.w3.org/1999/xlink" width="1200" height="630" viewBox="0 0 1200 630">
  <!-- Background -->
  <rect width="1200" height="630" fill="#ffffff"/>

  <!-- Left side: text content -->
  <!-- App icon -->
  <g transform="translate(80, 180) scale(1.1)">
    <g clip-path="url(#og-clip1)">
      <rect x="2" y="2" width="60" height="60" rx="3" fill="#333333"/>
      <rect x="10" y="5" width="44" height="50" rx="5" fill="#555" fill-opacity="0.2"/>
      <path d="M21.9644 22.2222C21.3084 22.2222 20.7202 22.1121 20.1997 21.8921C19.6792 21.6678 19.2349 21.3462 18.8667 20.9272C18.4985 20.5083 18.215 20.0047 18.0161 19.4165C17.8215 18.8241 17.7241 18.1597 17.7241 17.4233V17.4106C17.7241 16.4373 17.8976 15.5931 18.2446 14.8779C18.5916 14.1585 19.0825 13.6021 19.7173 13.2085C20.3521 12.8149 21.0947 12.6182 21.9453 12.6182C22.6393 12.6182 23.2593 12.7409 23.8052 12.9863C24.3511 13.2318 24.7996 13.5767 25.1509 14.021C25.5021 14.4611 25.7327 14.9774 25.8428 15.5698L25.8491 15.6333H24.4209L24.4019 15.5698C24.241 15.0282 23.9469 14.6113 23.5195 14.3193C23.0964 14.0273 22.5716 13.8813 21.9453 13.8813C21.3825 13.8813 20.8937 14.0252 20.479 14.313C20.0643 14.6007 19.7427 15.0091 19.5142 15.5381C19.2899 16.0628 19.1777 16.6849 19.1777 17.4043V17.417C19.1777 17.9629 19.2412 18.4538 19.3682 18.8896C19.4993 19.3255 19.6877 19.6979 19.9331 20.0068C20.1785 20.3115 20.4727 20.5464 20.8154 20.7114C21.1582 20.8765 21.5454 20.959 21.9771 20.959C22.4764 20.959 22.9144 20.8617 23.291 20.667C23.6719 20.4681 23.9681 20.193 24.1797 19.8418C24.3913 19.4906 24.4992 19.0801 24.5034 18.6104L24.5098 18.4072H22.1548V17.2583H25.9189V18.3945C25.9189 18.9743 25.8258 19.499 25.6396 19.9688C25.4535 20.4385 25.1868 20.8426 24.8398 21.1812C24.4928 21.5155 24.076 21.7736 23.5894 21.9556C23.1027 22.1333 22.561 22.2222 21.9644 22.2222ZM27.874 22V12.8403H29.5181L32.4316 20.1401H32.5396L35.4531 12.8403H37.0972V22H35.7959V15.2842H35.0913L36.5767 13.0942L33.0093 22H31.9556L28.3945 13.0942L29.8735 15.2842H29.1753V22H27.874ZM40.6899 19.0864L40.6201 17.1694H40.9185L44.7017 12.8403H46.3901L42.7212 16.96L41.9658 17.6392L40.6899 19.0864ZM39.3887 22V12.8403H40.8105V22H39.3887ZM44.9111 22L41.731 17.6265L42.7339 16.6616L46.6885 22H44.9111ZM28.2168 38.1714C27.5355 38.1714 26.9346 38.0592 26.4141 37.835C25.8936 37.6107 25.4852 37.2996 25.189 36.9019C24.8927 36.4998 24.7446 36.0407 24.7446 35.5244V35.5117C24.7446 35.1266 24.8293 34.7733 24.9985 34.4517C25.172 34.13 25.4111 33.8592 25.7158 33.6392C26.0247 33.4149 26.3781 33.2604 26.7759 33.1758V33.144C26.2638 32.9959 25.8512 32.742 25.5381 32.3823C25.2292 32.0226 25.0747 31.5994 25.0747 31.1128V31.1001C25.0747 30.6304 25.208 30.2135 25.4746 29.8496C25.7454 29.4857 26.1178 29.1979 26.5918 28.9863C27.0658 28.7747 27.6074 28.6689 28.2168 28.6689C28.8262 28.6689 29.3657 28.7747 29.8354 28.9863C30.3094 29.1979 30.6797 29.4857 30.9463 29.8496C31.2171 30.2135 31.3525 30.6304 31.3525 31.1001V31.1128C31.3525 31.5994 31.1981 32.0226 30.8892 32.3823C30.5802 32.742 30.1698 32.9959 29.6577 33.144V33.1758C30.0597 33.2604 30.411 33.4149 30.7114 33.6392C31.0161 33.8592 31.2531 34.13 31.4224 34.4517C31.5959 34.7733 31.6826 35.1266 31.6826 35.5117V35.5244C31.6826 36.0407 31.5345 36.4998 31.2383 36.9019C30.9463 37.2996 30.5379 37.6107 30.0132 37.835C29.4927 38.0592 28.8939 38.1714 28.2168 38.1714ZM28.2168 37.0288C28.6061 37.0288 28.951 36.9611 29.2515 36.8257C29.5519 36.686 29.7868 36.4977 29.9561 36.2607C30.1296 36.0195 30.2163 35.7445 30.2163 35.4355V35.4229C30.2163 35.1097 30.1317 34.8325 29.9624 34.5913C29.7931 34.3459 29.5562 34.1554 29.2515 34.02C28.951 33.8804 28.6061 33.8105 28.2168 33.8105C27.8232 33.8105 27.4762 33.8804 27.1758 34.02C26.8753 34.1554 26.6405 34.3459 26.4712 34.5913C26.3019 34.8325 26.2173 35.1097 26.2173 35.4229V35.4355C26.2173 35.7445 26.3019 36.0195 26.4712 36.2607C26.6447 36.4977 26.8817 36.686 27.1821 36.8257C27.4826 36.9611 27.8275 37.0288 28.2168 37.0288ZM28.2168 32.6616C28.5553 32.6616 28.8537 32.6024 29.1118 32.4839C29.3742 32.3612 29.5773 32.1919 29.7212 31.9761C29.8651 31.7603 29.937 31.5148 29.937 31.2397V31.2271C29.937 30.9478 29.863 30.7002 29.7148 30.4844C29.571 30.2686 29.37 30.1014 29.1118 29.9829C28.8537 29.8602 28.5553 29.7988 28.2168 29.7988C27.8783 29.7988 27.5778 29.8602 27.3154 29.9829C27.0573 30.1014 26.8542 30.2686 26.7061 30.4844C26.5622 30.7002 26.4902 30.9478 26.4902 31.2271V31.2397C26.4902 31.5148 26.5622 31.7603 26.7061 31.9761C26.8542 32.1919 27.0573 32.3612 27.3154 32.4839C27.5736 32.6024 27.874 32.6616 28.2168 32.6616ZM33.8789 38L37.916 30.1416V30.0464H33.1172V28.8403H39.3569V30.0781L35.377 38H33.8789Z" fill="white"/>
    </g>
    <defs>
      <clipPath id="og-clip1"><rect x="2" y="2" width="60" height="60" rx="3" fill="white"/></clipPath>
    </defs>
  </g>

  <!-- Title -->
  <text x="80" y="290" font-family="-apple-system, BlinkMacSystemFont, SF Pro Display, Segoe UI, system-ui, sans-serif" font-size="48" font-weight="700" fill="#111827">GMK87 Configurator</text>

  <!-- Tagline -->
  <text x="80" y="335" font-family="-apple-system, BlinkMacSystemFont, SF Pro Display, Segoe UI, system-ui, sans-serif" font-size="20" fill="#6b7280">Control your Zuoya GMK87 keyboard.</text>
  <text x="80" y="365" font-family="-apple-system, BlinkMacSystemFont, SF Pro Display, Segoe UI, system-ui, sans-serif" font-size="20" fill="#6b7280">Upload images, configure lighting, sync the clock.</text>

  <!-- Open source badge -->
  <rect x="80" y="400" width="100" height="30" rx="15" fill="#f3f4f6"/>
  <text x="130" y="420" font-family="-apple-system, BlinkMacSystemFont, SF Pro Display, Segoe UI, system-ui, sans-serif" font-size="13" fill="#6b7280" text-anchor="middle">Open Source</text>

  <rect x="190" y="400" width="56" height="30" rx="15" fill="#f3f4f6"/>
  <text x="218" y="420" font-family="-apple-system, BlinkMacSystemFont, SF Pro Display, Segoe UI, system-ui, sans-serif" font-size="13" fill="#6b7280" text-anchor="middle">MIT</text>

  <!-- Right side: screenshot -->
  <g transform="translate(580, 50)">
    <image href="screenshot.png" x="0" y="0" width="560" height="530" preserveAspectRatio="xMidYMid meet"/>
  </g>

  <!-- Subtle bottom border -->
  <rect y="626" width="1200" height="4" fill="#e5e7eb"/>
</svg>
